<?xml version="1.0" encoding="utf-8"?>
<!-- Generator: Adobe Illustrator 15.1.0, SVG Export Plug-In . SVG Version: 6.00 Build 0)  -->
<!DOCTYPE svg PUBLIC "-//W3C//DTD SVG 1.1//EN" "http://www.w3.org/Graphics/SVG/1.1/DTD/svg11.dtd">
<svg version="1.1" id="Ebene_1" xmlns="http://www.w3.org/2000/svg" xmlns:xlink="http://www.w3.org/1999/xlink" x="0px" y="0px"
	 width="1368.105px" height="741.074px" viewBox="0 0 1368.105 741.074" enable-background="new 0 0 1368.105 741.074"
	 xml:space="preserve">
<path id="Font_x5F_TM" d="M1205.446,391.659v-19.834h-7.412v-4.16h19.482v4.16h-7.207v19.834H1205.446z M1220.417,391.659v-23.994
	h7.588l4.365,16.523l4.395-16.523h7.588v23.994h-4.629v-19.131l-5.186,19.131h-4.395l-5.156-19.131v19.131H1220.417z"/>
<g id="Font_x5F_BEAMBOX">
	<path d="M527.043,423.634c4.265,3.867,6.399,8.199,6.399,13c0,3.534-1.167,6.867-3.5,10c-3.134,4.267-7.8,7.5-14,9.699
		c-5.467,1.935-11.534,2.9-18.2,2.9h-60.1v-44.8h62.3c1.866,0,3.601-0.272,5.2-0.819c2.201-0.818,3.3-2.012,3.3-3.582
		c0-1.569-1.099-2.729-3.3-3.48c-1.599-0.545-3.334-0.818-5.2-0.818h-62.3l15.1-18.6h45c6.733,0,12.833,1,18.301,3
		c6.133,2.267,10.765,5.566,13.899,9.899c2.333,3.2,3.5,6.601,3.5,10.2C533.442,415.168,531.308,419.634,527.043,423.634
		 M499.864,433.034h-39.821v7.601h39.821c2.328,0,4.525-0.233,6.588-0.7c3.059-0.666,4.591-1.7,4.591-3.101
		c0-1.399-1.532-2.433-4.591-3.1C504.389,433.268,502.192,433.034,499.864,433.034"/>
	<polygon points="617.442,440.734 603.042,459.333 539.142,459.333 539.142,387.234 617.442,387.234 603.042,405.833 
		561.542,405.833 561.542,413.534 613.942,413.534 599.542,432.134 561.542,432.134 561.542,440.734 	"/>
	<path d="M652.34,459.333l13.5-18.6h30.101l-18.7-26l-32.5,44.6h-27.7l46.2-64.1c1.466-2.133,3.5-4,6.1-5.6
		c2.866-1.733,5.633-2.601,8.3-2.601c2.733,0,5.5,0.867,8.301,2.601c2.465,1.534,4.465,3.399,6,5.6l45.099,64.1H652.34z"/>
	<path d="M870.94,459.534h-24.5l-9.5-38.1l-20.199,32.5c-2.668,4.2-6.334,6.3-11,6.3c-2.4,0-4.734-0.6-7-1.8
		c-2.268-1.2-3.967-2.7-5.1-4.5l-20.301-32.5l-9.4,38.1h-24.6l18.701-64c0.732-2.6,2.281-4.782,4.648-6.55
		c2.367-1.766,5.084-2.65,8.15-2.65c4.732,0,8.834,2.801,12.301,8.4l22,35.9l22.1-35.9c3.4-5.6,7.465-8.4,12.199-8.4
		c3.133,0,5.867,0.885,8.201,2.65c2.332,1.768,3.9,3.95,4.699,6.55L870.94,459.534z"/>
	<path d="M967.84,423.634c4.266,3.867,6.4,8.199,6.4,13c0,3.534-1.168,6.867-3.5,10c-3.135,4.267-7.801,7.5-14,9.699
		c-5.467,1.935-11.535,2.9-18.201,2.9h-60.1v-44.8h62.301c1.865,0,3.6-0.272,5.199-0.819c2.201-0.818,3.301-2.012,3.301-3.582
		c0-1.569-1.1-2.729-3.301-3.48c-1.6-0.545-3.334-0.818-5.199-0.818H878.44l15.1-18.6h45c6.734,0,12.834,1,18.301,3
		c6.133,2.267,10.766,5.566,13.9,9.899c2.332,3.2,3.5,6.601,3.5,10.2C974.241,415.168,972.106,419.634,967.84,423.634
		 M940.663,433.034H900.84v7.601h39.822c2.328,0,4.525-0.233,6.588-0.7c3.059-0.666,4.59-1.7,4.59-3.101
		c0-1.399-1.531-2.433-4.59-3.1C945.188,433.268,942.991,433.034,940.663,433.034"/>
	<path d="M1090.239,422.634c0,10.534-4.117,19.284-12.35,26.25c-8.234,6.967-18.617,10.449-31.15,10.449h-21.699
		c-12.602,0-23.018-3.482-31.25-10.449c-8.234-6.966-12.352-15.716-12.352-26.25c0-10.533,4.084-19.066,12.25-25.601
		c8.166-6.532,18.617-9.8,31.352-9.8h21.699c12.732,0,23.166,3.268,31.301,9.8C1086.172,403.568,1090.239,412.101,1090.239,422.634
		 M1046.772,405.833h-21.666c-6.191,0-11.283,1.655-15.277,4.965c-3.992,3.309-5.99,7.539-5.99,12.686
		c0,5.15,1.998,9.313,5.99,12.487c3.994,3.175,9.086,4.763,15.277,4.763h21.666c6.189,0,11.283-1.588,15.275-4.763
		c3.996-3.175,5.992-7.337,5.992-12.487c0-5.146-2.016-9.377-6.041-12.686C1057.969,407.489,1052.895,405.833,1046.772,405.833"/>
	<polygon points="1188.44,387.234 1152.741,423.934 1186.84,459.333 1158.34,459.333 1133.84,433.534 1109.241,459.333 
		1080.84,459.333 1114.84,423.934 1079.241,387.234 1108.139,387.234 1133.84,414.034 1159.44,387.234 	"/>
</g>
<g id="Logo">
	<g id="White" display="none">
		<polygon display="inline" fill="#FFFFFF" points="539.001,256.526 604.494,323.837 741.084,326.288 785.032,256.405 
			782.856,254.851 740.475,322.434 603.884,319.985 540.646,255.135 		"/>
		<polygon display="inline" fill="#FFFFFF" points="534.396,251.504 587.855,197.879 585.444,195.835 533.787,247.652 
			421.59,247.392 384.298,198.664 382.822,199.786 422.197,251.245 		"/>
		<polygon display="inline" fill="#FFFFFF" points="340.187,314.977 414.131,252.317 411.9,249.392 339.576,311.123 
			226.444,309.191 227.786,313.057 		"/>
		<polygon display="inline" fill="#FDFDFD" points="373.461,401.644 276.926,497.722 133.923,489.069 134.484,492.919 
			277.534,501.574 374.833,404.068 		"/>
	</g>
	<g id="Black">
		<polygon points="777.565,272.313 735.086,340.467 603.119,337.705 604.295,338.945 737.022,341.724 779.499,273.57 
			785.032,256.405 		"/>
		<polygon points="539.019,260.527 534.188,265.469 425.674,264.909 426.549,266.135 536.123,266.725 538.94,263.841 		"/>
		<polygon points="336.224,328.031 336.87,329.261 346.835,329.46 417.449,267.792 415.777,253.922 414.348,254.537 
			415.514,266.536 344.902,328.204 		"/>
		<polygon points="376.912,405.849 375.804,406.953 379.358,417.112 285.55,512.362 147.254,503.664 148.65,504.886 
			287.484,513.619 381.293,418.368 		"/>
	</g>
	<g id="Grey">
		<polygon fill="#706F6F" points="741.084,326.288 604.494,323.836 540.882,258.526 539.001,256.526 540.646,255.135 
			538.495,252.931 574.522,216.26 587.391,203.161 587.855,197.879 534.396,251.504 422.197,251.245 382.822,199.786 
			385.972,213.792 424.091,264.901 534.188,265.47 539.019,260.527 538.923,270.888 602.362,337.688 735.086,340.468 
			777.565,272.313 785.032,256.405 		"/>
		<polygon fill="#706F6F" points="331.832,319.66 336.224,328.031 344.902,328.204 415.514,266.536 414.132,252.318 
			340.186,314.977 227.785,313.057 229.692,317.708 		"/>
		<polygon fill="#706F6F" points="374.833,404.068 277.534,501.574 134.484,492.919 146.715,503.63 285.55,512.362 379.358,417.112 
					"/>
	</g>
	<g id="Blue_x5F_light">
		<path fill="#B3C2E5" d="M455.846,153.042l-14.344,0.273L385.2,196.059l16.207,21.175c12.081-16.081,25.061-31.948,38.999-47.517
			C445.47,164.058,450.633,158.519,455.846,153.042"/>
		<path fill="#B3C2E5" d="M371.675,199.106l-92.927,0.836l-71.97,48.768l20.884,58.898l110.826,1.875l8.7-7.426
			c13.306-24.937,28.689-49.637,46.156-73.877L371.675,199.106z"/>
		<path fill="#B3C2E5" d="M329.078,322.187l-111.941-2.116l-94.87,71.629l14.588,94.986l138.91,8.407l11.416-11.362
			c6.631-50.584,21.954-102.483,45.985-153.754L329.078,322.187z"/>
	</g>
	<g id="Blue">
		<polygon fill="#1E71B8" points="592.065,198.403 538.495,252.93 603.883,319.985 740.475,322.434 783.522,253.788 
			703.025,197.475 		"/>
		<path fill="#1E71B8" d="M534.581,150.046l-94.299,1.798l-58.073,44.088l39.382,51.459l112.195,0.262l53.462-53.627
			L534.581,150.046z M440.405,169.716c-13.938,15.569-26.918,31.437-38.999,47.518l-16.207-21.176l56.303-42.743l14.343-0.274
			C450.633,158.518,445.469,164.057,440.405,169.716"/>
		<path fill="#1E71B8" d="M373.765,197.417l-95.733,0.861l-74.14,50.236l21.552,60.677l114.132,1.933l72.693-62.047L373.765,197.417
			z M338.488,309.483l-110.826-1.875l-20.885-58.898l71.971-48.768l92.927-0.836l21.668,29.074
			c-17.466,24.24-32.849,48.94-46.156,73.877L338.488,309.483z"/>
		<path fill="#1E71B8" d="M331.832,319.659l-115.283-2.18l-97.697,73.764l15.023,97.822l143.051,8.656l97.444-96.982
			L331.832,319.659z M275.766,495.093l-138.91-8.407L122.268,391.7l94.869-71.628l111.942,2.116l4.087,7.79
			c-24.031,51.271-39.353,103.17-45.985,153.754L275.766,495.093z"/>
	</g>
</g>
<g>
	<path fill="#1D71B8" d="M659.295,515.264c2.056,1.864,3.084,3.952,3.084,6.265c0,1.639-0.53,3.197-1.591,4.675
		c-1.478,2.089-3.727,3.679-6.746,4.771c-2.667,0.964-5.622,1.445-8.867,1.445h-23.13l-6.939-8.963h31.089
		c1.123,0,2.182-0.112,3.177-0.337c1.476-0.321,2.213-0.819,2.213-1.494s-0.737-1.173-2.213-1.494
		c-0.993-0.225-2.052-0.337-3.174-0.337h-13.805l-6.975-8.964h20.817c0.899,0,1.718-0.131,2.458-0.395
		c1.06-0.395,1.59-0.97,1.59-1.726c0-0.757-0.53-1.315-1.59-1.678c-0.74-0.263-1.559-0.395-2.458-0.395h-24.19l-6.939-8.963h30.069
		c3.277,0,6.232,0.499,8.867,1.494c3.02,1.125,5.269,2.747,6.746,4.867c1.061,1.51,1.591,3.101,1.591,4.771
		C662.379,511.185,661.351,513.336,659.295,515.264z"/>
	<path fill="#1D71B8" d="M710.278,514.783c0,5.076-1.984,9.293-5.952,12.649c-3.968,3.357-8.971,5.036-15.011,5.036H666.04v-21.686
		h10.795v12.722h12.48c2.988,0,5.445-0.765,7.373-2.295c1.928-1.529,2.892-3.535,2.892-6.018c0-2.479-0.972-4.519-2.915-6.113
		c-1.944-1.595-4.394-2.392-7.35-2.392H666.04l6.844-8.963h16.432c6.136,0,11.164,1.574,15.083,4.722
		C708.318,505.595,710.278,509.707,710.278,514.783z"/>
	<path fill="#1D71B8" d="M745.456,532.468H734.66v-34.744h10.795V532.468z"/>
	<path fill="#1D71B8" d="M792.102,527.986c0,3.149-1.43,4.723-4.289,4.723c-2.057,0-4.017-0.771-5.879-2.313l-20.336-17.011v19.083
		h-10.794v-30.306c0-1.285,0.409-2.348,1.229-3.184c0.819-0.837,1.983-1.255,3.494-1.255c1.959,0,3.774,0.692,5.445,2.077
		l20.335,17.054v-19.131h10.795V527.986z"/>
	<path fill="#1D71B8" d="M838.653,527.986c0,3.149-1.43,4.723-4.289,4.723c-2.057,0-4.017-0.771-5.879-2.313l-20.336-17.011v19.083
		h-10.794v-30.306c0-1.285,0.409-2.348,1.229-3.184c0.819-0.837,1.983-1.255,3.494-1.255c1.959,0,3.774,0.692,5.445,2.077
		l20.335,17.054v-19.131h10.795V527.986z"/>
	<path fill="#1D71B8" d="M895.082,514.783c0,5.076-1.984,9.293-5.952,12.649c-3.968,3.357-8.971,5.036-15.011,5.036h-10.457
		c-6.071,0-11.092-1.679-15.059-5.036c-3.968-3.356-5.951-7.573-5.951-12.649s1.967-9.188,5.903-12.337
		c3.935-3.147,8.971-4.722,15.106-4.722h10.457c6.136,0,11.164,1.574,15.083,4.722C893.122,505.595,895.082,509.707,895.082,514.783
		z M874.135,506.687h-10.44c-2.983,0-5.438,0.797-7.362,2.392s-2.887,3.634-2.887,6.113c0,2.482,0.962,4.488,2.887,6.018
		c1.925,1.53,4.379,2.295,7.362,2.295h10.44c2.982,0,5.437-0.765,7.361-2.295c1.925-1.529,2.887-3.535,2.887-6.018
		c0-2.479-0.971-4.519-2.911-6.113C879.531,507.484,877.085,506.687,874.135,506.687z"/>
	<path fill="#1D71B8" d="M953.823,497.724l-23.419,31.37c-1.928,2.603-3.888,3.903-5.88,3.903s-3.951-1.316-5.879-3.951
		l-22.842-31.322h13.397l15.517,21.492l15.613-21.492H953.823z"/>
	<path fill="#1D71B8" d="M951.028,532.468l6.506-8.964h14.505l-9.012-12.528l-15.661,21.492h-13.349l22.264-30.89
		c0.706-1.027,1.687-1.928,2.939-2.698c1.381-0.835,2.715-1.253,4-1.253c1.316,0,2.65,0.418,3.999,1.253
		c1.188,0.739,2.152,1.639,2.892,2.698l21.733,30.89H951.028z"/>
	<path fill="#1D71B8" d="M1023.023,497.724l-6.987,8.963h-10.409v25.781h-10.794v-25.781H980.52l6.939-8.963H1023.023z"/>
	<path fill="#1D71B8" d="M1036.756,532.468h-10.795v-34.744h10.795V532.468z"/>
	<path fill="#1D71B8" d="M1093.282,514.783c0,5.076-1.984,9.293-5.952,12.649c-3.968,3.357-8.971,5.036-15.011,5.036h-10.457
		c-6.071,0-11.092-1.679-15.059-5.036c-3.968-3.356-5.951-7.573-5.951-12.649s1.967-9.188,5.903-12.337
		c3.935-3.147,8.971-4.722,15.106-4.722h10.457c6.136,0,11.164,1.574,15.083,4.722
		C1091.322,505.595,1093.282,509.707,1093.282,514.783z M1072.335,506.687h-10.44c-2.983,0-5.438,0.797-7.362,2.392
		s-2.887,3.634-2.887,6.113c0,2.482,0.962,4.488,2.887,6.018c1.925,1.53,4.379,2.295,7.362,2.295h10.44
		c2.982,0,5.437-0.765,7.361-2.295c1.925-1.529,2.887-3.535,2.887-6.018c0-2.479-0.971-4.519-2.911-6.113
		C1077.731,507.484,1075.286,506.687,1072.335,506.687z"/>
	<path fill="#1D71B8" d="M1138.82,527.986c0,3.149-1.43,4.723-4.289,4.723c-2.057,0-4.017-0.771-5.879-2.313l-20.336-17.011v19.083
		h-10.794v-30.306c0-1.285,0.409-2.348,1.229-3.184c0.819-0.837,1.983-1.255,3.494-1.255c1.959,0,3.774,0.692,5.445,2.077
		l20.335,17.054v-19.131h10.795V527.986z"/>
	<path fill="#1D71B8" d="M1187.732,497.724l-6.939,8.963h-24.576c-1.318,0-1.976,0.475-1.976,1.421c0,0.948,0.657,1.422,1.976,1.422
		h17.686c4.208,0,7.726,1.028,10.553,3.084c2.923,2.186,4.386,5.012,4.386,8.481c0,3.438-1.477,6.217-4.429,8.337
		c-2.761,2.023-6.259,3.036-10.495,3.036h-31.771l6.93-8.964h24.833c1.122,0,2.133-0.192,3.032-0.578
		c1.154-0.481,1.732-1.14,1.732-1.976c0-0.867-0.578-1.525-1.735-1.976c-0.867-0.321-1.879-0.482-3.035-0.482h-17.686
		c-3.92,0-7.197-0.898-9.831-2.698c-2.827-1.928-4.24-4.481-4.24-7.662c0-3.212,1.413-5.782,4.24-7.71
		c2.634-1.799,5.911-2.698,9.831-2.698H1187.732z"/>
</g>
</svg>
